<?xml version="1.0" encoding="UTF-8"?>
<!-- Generator: Adobe Illustrator 22.1.0, SVG Export Plug-In . SVG Version: 6.00 Build 0)  -->
<svg version="1.1" id="svg8" inkscape:export-filename="C:\Users\bovard.r\image.png" inkscape:export-xdpi="96" inkscape:export-ydpi="96" inkscape:version="0.92.4 (5da689c313, 2019-01-14)" sodipodi:docname="logo_carre_couleurs.svg" xmlns:cc="http://creativecommons.org/ns#" xmlns:dc="http://purl.org/dc/elements/1.1/" xmlns:inkscape="http://www.inkscape.org/namespaces/inkscape" xmlns:rdf="http://www.w3.org/1999/02/22-rdf-syntax-ns#" xmlns:sodipodi="http://sodipodi.sourceforge.net/DTD/sodipodi-0.dtd" xmlns:svg="http://www.w3.org/2000/svg" xmlns="http://www.w3.org/2000/svg" xmlns:xlink="http://www.w3.org/1999/xlink" x="0px" y="0px" viewBox="0 0 1200 806.6" style="enable-background:new 0 0 1200 806.6;" xml:space="preserve">
<style type="text/css">
	.st0{fill:#B3DB18;}
	.st1{fill:#4DC1DF;}
	.st2{fill:#308F99;}
	.st3{fill:#656263;}
</style>
<g id="picto">
	<polygon class="st0" points="638.3,176.8 726,100 575.9,190.6 677.7,207.8 651.2,203.3  "/>
	<polygon class="st1" points="677.7,207.8 651.2,203.3 682.4,267.4 726,100  "/>
	<polygon class="st2" points="638.3,176.8 651.2,203.3 677.7,207.8 726,100  "/>
		<animateTransform id="op" attributeName="transform" attributeType="XML" type="rotate" from="0 682 237" to="45 682 237" dur="1s" begin="0s;op.end+9s"/>
        <animateTransform id="op2" attributeName="transform" attributeType="XML" type="rotate" from="45 682 237" to="0 682 237" dur="1s" begin="1s;op2.end+9s"/>
</g>
<g id="cartolacote">
	<path id="path835" class="st0" d="M146.5,379.9c-13.4,0-25.1-4.9-34-13.8C99.8,353.4,100,339,100,314.2c0-24.9-0.2-39.2,12.5-51.9   c8.9-8.9,20.5-13.8,34-13.8c23.8,0,41.6,14,46.1,39.8h-20c-3.1-13.1-11.8-22.2-26.2-22.2c-7.6,0-14.5,2.9-19.1,7.8   c-6.4,6.9-7.8,14.3-7.8,40.3s1.5,33.4,7.8,40.3c4.5,4.9,11.4,7.8,19.1,7.8c14.4,0,23.2-9.1,26.3-22.2h19.8   C188.3,365.9,169.9,379.9,146.5,379.9"/>
	<path id="path839" class="st0" d="M257.3,278.7l-20.2,57.4h39.8L257.3,278.7z M291.3,378.8l-8.9-26h-51l-8.9,26h-20.9L249,249.5   h15.8l47.4,129.3H291.3z"/>
	<path id="path843" class="st0" d="M379.2,267.1h-29.1v40.5h29.1c13.1,0,22-7.4,22-20.2S392.3,267.1,379.2,267.1 M401.9,378.8   l-27.2-54.5h-24.5v54.5h-19.6V249.5h50.1c24.5,0,40.1,15.8,40.1,37.8c0,18.5-11.3,30.3-25.8,34.3l29.8,57.2H401.9z"/>
	<path id="path847" class="st0" d="M491.3,267.1v111.7h-17.6V267.1H438v-17.6h90.8v17.6H491.3z"/>
	<path id="path851" class="st0" d="M608.6,274c-4.5-4.9-11.6-8-19.2-8c-7.6,0-14.7,3.1-19.3,8c-6.4,6.9-7.6,14.2-7.6,40.1   c0,26,1.3,33.2,7.6,40.1c4.5,4.9,11.6,8,19.3,8c7.6,0,14.7-3.1,19.2-8c6.4-6.9,7.6-14.2,7.6-40.1   C616.2,288.2,614.9,280.9,608.6,274 M623.5,366.1c-8.9,8.9-20.3,13.8-34.1,13.8s-25.1-4.9-34-13.8c-12.7-12.7-12.5-27.1-12.5-51.9   c0-24.9-0.2-39.2,12.5-51.9c8.9-8.9,20.2-13.8,34-13.8s25.2,4.9,34.1,13.8c12.7,12.7,12.4,27.1,12.4,51.9   C635.8,339,636.2,353.4,623.5,366.1"/>
	<path id="path867" class="st1" d="M504.1,514.2c-20.9,0-30.3-13.6-30.3-31.8v-141h17.5v140.3c0,11.6,3.9,17.5,16,17.5h9.5v15H504.1   z"/>
	<path id="path871" class="st1" d="M614.1,459.1h-33.5c-18,0-26.7,7.3-26.7,21.1s8.5,20.4,27.4,20.4c10.2,0,19.2-0.7,26.7-8   c4.1-3.9,6.1-10.7,6.1-20.6V459.1z M614.1,514.2v-11.4c-9.7,9.7-18.4,12.9-34.5,12.9c-16.5,0-26.2-3.2-33.7-10.9   c-5.8-5.8-9-14.8-9-24.3c0-20.9,14.6-34.5,41.3-34.5h35.9v-11.4c0-17.5-8.7-26.2-30.6-26.2c-15.3,0-23.1,3.6-30.1,13.6l-11.9-11   c10.7-13.8,22.8-17.7,42.2-17.7c32,0,47.8,13.8,47.8,39.8v81.1H614.1L614.1,514.2z"/>
	<path id="path875" class="st1" d="M732.3,515.6c-30.1,0-52.9-20.4-52.9-61.2s22.8-61.2,52.9-61.2c16.5,0,26.9,4.4,39.3,17.7   l-11.9,11.2c-9-10-16-13.3-27.4-13.3c-11.7,0-21.4,4.6-27.7,13.6c-5.6,7.8-7.8,17-7.8,32c0,15.1,2.2,24.3,7.8,32   c6.3,9,16,13.6,27.7,13.6c11.4,0,18.4-3.6,27.4-13.6l11.9,11.4C759.3,511.3,748.8,515.6,732.3,515.6"/>
	<path id="path879" class="st1" d="M865.5,417.6c-5.6-5.6-13.4-8.7-21.8-8.7c-8.5,0-16,3.2-21.6,8.7c-8.7,8.7-9.7,23.6-9.7,36.9   c0,13.4,1,28.2,9.7,36.9c5.6,5.6,13.1,8.7,21.6,8.7s16.3-3.2,21.8-8.7c8.7-8.7,9.5-23.5,9.5-36.9S874.3,426.3,865.5,417.6    M865.5,370l-21.8-25.2L821.8,370h-16.7l30.3-37.1h16.5l30.3,37.1H865.5z M877.9,502.1c-8.3,8.3-19.7,13.6-34.2,13.6   c-14.6,0-26-5.3-34.2-13.6c-12.1-12.4-14.6-29.1-14.6-47.6c0-18.4,2.4-35.2,14.6-47.6c8.2-8.3,19.7-13.6,34.2-13.6   c14.6,0,26,5.3,34.2,13.6c12.1,12.4,14.6,29.1,14.6,47.6C892.5,472.9,890.1,489.7,877.9,502.1"/>
	<path id="path883" class="st1" d="M963.4,514.2c-20.4,0-30.6-14.3-30.6-32v-73.3h-15.1v-13.3h15.1v-37.4h17.5v37.4h25.5v13.3h-25.5   v72.8c0,10.9,5.1,17.5,16.3,17.5h9.2v15H963.4z"/>
	<path id="path887" class="st1" d="M1078.9,426.1c-4.6-10.9-15.3-18-27.9-18s-23.3,7-27.9,18c-2.7,6.6-3.2,10.2-3.6,19.9h63.1   C1082,436.3,1081.6,432.6,1078.9,426.1 M1019.4,459.1c0,26.2,12.4,41.3,35.2,41.3c13.8,0,21.8-4.1,31.3-13.6l11.9,10.4   c-12.1,12.1-23.3,18.4-43.7,18.4c-31.6,0-52.2-18.9-52.2-61.2c0-38.6,18.7-61.2,49-61.2c30.8,0,49,22.3,49,57.8v8h-80.5   L1019.4,459.1L1019.4,459.1z"/>
	<path id="path889" class="st2" d="M491.3,378.8h-17.6v-37.6h17.6V378.8z"/>
</g>
<g id="slogan">
	<path id="path893" class="st3" d="M473,623.9v-46.8h5v42.3h23.9v4.5H473z"/>
	<path id="path897" class="st3" d="M514.8,623.9v-46.8h29v4.5h-24.1v16.5h20.5v4.5h-20.5v16.9h24.1v4.5h-29V623.9z"/>
	<path id="path901" class="st3" d="M606,618.9c-3.3,3.5-7.7,5.4-12.5,5.4c-4.6,0-8.8-1.7-12-4.9c-4.4-4.4-4.4-9-4.4-18.9   s0-14.5,4.4-18.9c3.2-3.2,7.3-4.9,12-4.9c8.9,0,15,5.8,16.4,14h-5c-1.3-5.9-5.5-9.5-11.4-9.5c-3.1,0-6,1.3-8.1,3.4   c-3,3-3.3,6.2-3.3,16s0.3,13,3.3,16c2,2.1,5,3.3,8.1,3.3c3.4,0,6.7-1.4,8.9-4c1.9-2.3,2.6-4.9,2.6-8.5v-3.6h-11.5v-4.4H610v7.4   C610,612.2,608.9,615.8,606,618.9"/>
	<path id="path905" class="st3" d="M640.7,572.6h-4.3l5.8-10.1h5.6L640.7,572.6z M625.8,623.9v-46.8h29v4.5h-24.1v16.5h20.5v4.5   h-20.5v16.9h24.1v4.5h-29V623.9z"/>
	<path id="path909" class="st3" d="M692.1,584.5c-2-2.1-5-3.4-8.1-3.4s-6,1.2-8.1,3.4c-3,3-3.3,6.2-3.3,16s0.3,12.9,3.3,16   c2,2.1,5,3.4,8.1,3.4s6-1.2,8.1-3.4c3-3,3.3-6.2,3.3-16S695,587.6,692.1,584.5 M696,619.4c-3.2,3.2-7.3,4.9-12,4.9s-8.8-1.7-12-4.9   c-4.4-4.4-4.4-9-4.4-18.9s0-14.5,4.4-18.9c3.2-3.2,7.3-4.9,12-4.9s8.8,1.7,12,4.9c4.4,4.4,4.4,9,4.4,18.9S700.4,615,696,619.4"/>
	<path id="path913" class="st3" d="M733.3,581.6h-12v18.6h12c5.8,0,9.9-3.2,9.9-9.3C743.2,584.7,739.1,581.6,733.3,581.6    M733.7,604.7h-12.4V624h-5v-46.8h17.4c8.5,0,14.5,5.3,14.5,13.7C748.2,599.3,742.3,604.7,733.7,604.7"/>
	<path id="path917" class="st3" d="M784.5,584.5c-2-2.1-5-3.4-8.1-3.4s-6,1.2-8.1,3.4c-3,3-3.3,6.2-3.3,16s0.3,12.9,3.3,16   c2,2.1,5,3.4,8.1,3.4s6-1.2,8.1-3.4c3-3,3.3-6.2,3.3-16S787.5,587.6,784.5,584.5 M788.4,619.4c-3.2,3.2-7.3,4.9-12,4.9   s-8.8-1.7-12-4.9c-4.4-4.4-4.4-9-4.4-18.9s0-14.5,4.4-18.9c3.2-3.2,7.3-4.9,12-4.9s8.8,1.7,12,4.9c4.4,4.4,4.4,9,4.4,18.9   C792.8,610.4,792.8,615,788.4,619.4"/>
	<path id="path921" class="st3" d="M826.2,581.6h-12.5v17.2h12.5c5.5,0,9.3-2.8,9.3-8.5S831.7,581.6,826.2,581.6 M835.6,623.9   L825,603.1h-11.2v20.8h-5v-46.8h17.9c8.1,0,13.9,4.9,13.9,13c0,6.8-4.1,11.3-10.2,12.5l11.1,21.2h-5.9V623.9z"/>
	<path id="path925" class="st3" d="M869.8,581.6v42.3h-5v-42.3h-13.5v-4.5h32.1v4.5H869.8z"/>
	<path id="path929" class="st3" d="M905.6,584.3l-8.8,24.7h17.5L905.6,584.3z M919.5,623.9l-3.7-10.6h-20.4l-3.7,10.6h-5.3   l17.2-46.8h4.2l17.2,46.8H919.5z"/>
	<path id="path931" class="st3" d="M936.6,577.1h5v46.8h-5V577.1z"/>
	<path id="path935" class="st3" d="M959.2,623.9v-46.8h5v42.3h23.9v4.5H959.2z"/>
	<path id="path939" class="st3" d="M1046,585c-2.4-2.5-5.6-3.4-9.2-3.4h-10.2v37.9h10.2c3.6,0,6.8-0.9,9.2-3.4   c3.2-3.4,3.1-10.3,3.1-16C1049,594.3,1049.2,588.4,1046,585 M1049.4,619.6c-2.8,2.8-7,4.3-11.8,4.3h-16v-46.8h16   c4.9,0,9,1.5,11.8,4.3c4.9,4.9,4.6,12,4.6,18.5C1054,606.5,1054.3,614.7,1049.4,619.6"/>
	<path id="path943" class="st3" d="M1070,623.9v-46.8h29v4.5h-24v16.5h20.5v4.5H1075v16.9h24.1v4.5H1070V623.9z"/>
	<path id="path947" class="st3" d="M502.8,706.2L478,668.7v37.5h-5v-46.8h4.7l24.8,37.4v-37.4h5v46.8H502.8z"/>
	<path id="path951" class="st3" d="M546.8,666.9c-2-2.1-5-3.4-8.1-3.4s-6,1.2-8.1,3.4c-3,3-3.3,6.2-3.3,16s0.3,12.9,3.3,16   c2,2.1,5,3.4,8.1,3.4s6-1.2,8.1-3.4c3-3,3.3-6.2,3.3-16C550.1,673,549.7,669.9,546.8,666.9 M550.7,701.8c-3.2,3.2-7.3,4.9-12,4.9   s-8.8-1.7-12-4.9c-4.4-4.4-4.4-9-4.4-18.9s0-14.5,4.4-18.9c3.2-3.2,7.3-4.9,12-4.9s8.8,1.7,12,4.9c4.4,4.4,4.4,9,4.4,18.9   C555.1,692.8,555.1,697.3,550.7,701.8"/>
	<path id="path955" class="st3" d="M582.2,663.9v42.3h-5v-42.3h-13.5v-4.5h32.1v4.5H582.2z"/>
	<path id="path959" class="st3" d="M625,663.9h-12.5v17.2H625c5.5,0,9.3-2.8,9.3-8.5S630.4,663.9,625,663.9 M634.3,706.2l-10.7-20.8   h-11.2v20.8h-5v-46.8h17.9c8.1,0,13.9,4.9,13.9,13c0,6.8-4.1,11.3-10.2,12.5l11.1,21.2L634.3,706.2L634.3,706.2z"/>
	<path id="path963" class="st3" d="M653.6,706.2v-46.8h29v4.5h-24.1v16.5H679v4.5h-20.5v16.9h24.1v4.5h-29V706.2z"/>
	<path id="path967" class="st3" d="M732.8,663.9h-12.5v17.2h12.5c5.5,0,9.3-2.8,9.3-8.5S738.2,663.9,732.8,663.9 M742.2,706.2   l-10.7-20.8h-11.2v20.8h-5v-46.8h17.9c8.1,0,13.9,4.9,13.9,13c0,6.8-4.1,11.3-10.2,12.5l11.1,21.2L742.2,706.2L742.2,706.2z"/>
	<path id="path971" class="st3" d="M776.3,654.9H772l5.8-10.1h5.6L776.3,654.9z M761.4,706.2v-46.8h29v4.5h-24.1v16.5h20.5v4.5   h-20.5v16.9h24.1v4.5h-29V706.2z"/>
	<path id="path975" class="st3" d="M830.9,701.2c-3.3,3.5-7.7,5.4-12.5,5.4c-4.6,0-8.8-1.7-12-4.9c-4.4-4.4-4.4-9-4.4-18.9   s0-14.5,4.4-18.9c3.2-3.2,7.3-4.9,12-4.9c8.9,0,15,5.8,16.4,14h-5c-1.3-5.9-5.5-9.5-11.4-9.5c-3.1,0-6,1.3-8.1,3.4   c-3,3-3.3,6.2-3.3,16s0.3,13,3.3,16c2,2.1,5,3.3,8.1,3.3c3.4,0,6.7-1.4,8.9-4c1.9-2.3,2.6-4.9,2.6-8.5v-3.6h-11.5v-4.4h16.5v7.4   C834.9,694.5,833.8,698.1,830.9,701.2"/>
	<path id="path977" class="st3" d="M849.5,659.4h5v46.8h-5V659.4z"/>
	<path id="path981" class="st3" d="M893.7,666.9c-2-2.1-5-3.4-8.1-3.4s-6,1.2-8.1,3.4c-3,3-3.3,6.2-3.3,16s0.3,12.9,3.3,16   c2,2.1,5,3.4,8.1,3.4s6-1.2,8.1-3.4c3-3,3.3-6.2,3.3-16C897,673,896.6,669.9,893.7,666.9 M897.6,701.8c-3.2,3.2-7.3,4.9-12,4.9   s-8.8-1.7-12-4.9c-4.4-4.4-4.4-9-4.4-18.9s0-14.5,4.4-18.9c3.2-3.2,7.3-4.9,12-4.9s8.8,1.7,12,4.9c4.4,4.4,4.4,9,4.4,18.9   S902,697.3,897.6,701.8"/>
	<path id="path985" class="st3" d="M946.5,706.2l-24.8-37.5v37.5h-5v-46.8h4.7l24.8,37.4v-37.4h5v46.8H946.5z"/>
</g>
</svg>